<svg height="512pt" viewBox="0 -11 512.00104 512" width="512pt" xmlns="http://www.w3.org/2000/svg"><path d="m63.648438 362.355469 63.652343 63.648437-63.652343 63.652344-63.648438-63.652344zm0 0"/><path d="m148.582031 274.535156c-3.878906-6.253906-6.59375-12.96875-8.460937-19.886718-8.78125 1.671874-16.992188 5.804687-23.425782 12.234374l-8.796874 8.796876c12.890624 6.136718 28.046874 5.65625 40.683593-1.144532zm0 0"/><path d="m212.171875 468.445312 141.800781-142.304687v-97.296875l-163.015625-163.523438-185.050781 184.738282v127.304687l57.746094-57.4375zm63.652344-106.085937-63.652344 63.652344-42.433594-42.433594 21.21875-21.21875 31.824219 31.824219 21.21875-21.214844-31.824219-31.828125 21.214844-21.214844zm-180.34375-116.691406c11.628906-11.628907 26.683593-18.925781 42.722656-21.164063 2.199219-15.546875 8.996094-30.558594 20.929687-42.488281l31.820313-31.828125 10.609375 10.609375c29.246094 29.246094 29.246094 76.839844 0 106.085937l-31.824219 31.828126c-4.699219 1.007812-54.082031 30.785156-95.476562-10.609376l-10.609375-10.609374zm0 0"/><path d="m180.347656 245.667969c13.832032-13.832031 16.761719-34.5 8.796875-51.230469l-8.796875 8.792969c-13.832031 13.832031-16.761718 34.5-8.796875 51.230469zm0 0"/><path d="m352.875 30.707031-34.617188 34.613281 63.652344 63.652344 34.613282-34.613281c5.855468-5.855469 15.367187-5.855469 21.21875 0l10.605468 10.609375 63.652344-63.652344-10.609375-10.609375c-40.941406-40.941406-107.574219-40.941406-148.515625 0zm0 0"/><path d="m275.820312 65.316406 106.085938 106.085938-21.214844 21.21875-106.085937-106.085938zm0 0"/></svg>