<svg height="512pt" viewBox="-61 0 512 512" width="512pt" xmlns="http://www.w3.org/2000/svg"><path d="m390 482h-68.183594c-18.929687-53.414062-69.21875-90-126.816406-90s-107.886719 36.585938-126.816406 90h-68.183594v30h390zm0 0"/><path d="m300 61h-30v-61h-30v61h-90v-61h-30v61h-30v60h210zm0 0"/><path d="m79.472656 409.726562c30.097656-29.613281 70.988282-47.726562 115.527344-47.726562s85.429688 18.113281 115.527344 47.726562c46.746094-21.242187 79.472656-68.121093 79.472656-122.726562v-15h-75c-42.753906 0-80.367188 20.371094-105 51.554688v-53.074219c34.191406-6.96875 60-38.265625 60-74.480469v-45h-150v45c0 36.214844 25.808594 67.511719 60 74.480469v53.074219c-24.632812-31.183594-62.246094-51.554688-105-51.554688h-75v15c0 54.605469 32.726562 101.484375 79.472656 122.726562zm100.527344-228.726562h30v30h-30zm0 0"/></svg>