<svg height="512pt" viewBox="0 0 512 512" width="512pt" xmlns="http://www.w3.org/2000/svg"><path d="m241 330h-81.210938l-61 61h142.210938zm0 0"/><path d="m352.210938 330h-81.210938v61h142.210938zm0 0"/><path d="m482 60h-30v-30h-30v30h-109.476562l-7.386719-30h25.863281v-30h-150v30h25.796875l-7.5 30h-109.296875v-30h-30v30h-30v-30h-30v60h121v60h60.222656l-.074218 30h-91.148438v-30h-30v30h-30v-30h-30v60h121v60h60.113281l-.078125 30h149.964844v-30h60v-60h121v-60h-30v30h-30v-30h-30v30h-91v-30h60v-60h121v-60h-30zm-301 180h-30v-30h30.074219zm3.296875-120h-33.296875v-30h40.796875zm53.40625-90h36.59375l7.496094 30h-51.585938zm-14.996094 60h66.585938l7.496093 30h-81.578124zm78.292969 150h-90v-30h90zm0-60h-90v-30h90zm60 30v30h-30v-30zm0-90h-33.695312l-7.390626-30h41.085938zm0 0"/><path d="m422 421h-91v61h-150v-61h-91v61h-90v30h512v-30h-90zm0 0"/></svg>