<svg height="512pt" viewBox="0 -15 512 512" width="512pt" xmlns="http://www.w3.org/2000/svg"><path d="m200.394531 133.082031 21.210938-21.210937 19.394531 19.394531v-53.789063h30v53.789063l19.394531-19.394531 21.210938 21.210937-40.605469 40.605469v91.96875c22.609375-15.082031 90-65.28125 90-128.179688 0-73.929687-93.339844-130.503906-97.308594-132.875l-7.691406-4.601562-7.691406 4.601562c-3.96875 2.371094-97.308594 58.945313-97.308594 132.875 0 62.898438 67.390625 113.097657 90 128.179688v-91.96875zm0 0"/><path d="m271 302.476562v-36.820312c-3.964844 2.648438-6.71875 4.339844-7.308594 4.695312l-7.691406 4.601563-7.691406-4.601563c-.589844-.351562-3.34375-2.046874-7.308594-4.695312v36.820312zm0 0"/><path d="m497 62.476562c-.003906 0-.003906 0-.003906 0-24.855469 0-44.996094 20.144532-44.996094 45v137.226563l-77.796875 108.910156-24.40625-17.429687 69.800781-97.726563c-12.226562-8.128906-26.832031-12.195312-41.71875-11.039062-19.394531 1.378906-37.222656 11.074219-48.867187 26.632812l-57.011719 76.007813v152.417968h150v-40.839843l90-150v-229.160157zm0 0"/><path d="m182.988281 254.046875c-11.644531-15.554687-29.472656-25.253906-48.867187-26.628906-14.953125-1.183594-29.523438 2.890625-41.726563 11.027343l69.808594 97.734376-24.40625 17.433593-77.796875-108.910156v-137.226563c0-24.851562-20.144531-45-44.996094-45h-15.003906v229.160157l90 150v40.839843h150v-152.417968zm0 0"/></svg>