<svg height="512pt" viewBox="0 0 512 512" width="512pt" xmlns="http://www.w3.org/2000/svg"><path d="m496 331c-19.863281 0-34.746094 9.15625-47.871094 17.226562-11.132812 6.855469-20.757812 12.773438-32.125 12.773438-11.382812 0-21.003906-5.917969-32.136718-12.773438-13.125-8.070312-28.007813-17.226562-47.871094-17.226562-19.863282 0-34.730469 9.15625-47.84375 17.226562-11.144532 6.855469-20.769532 12.773438-32.152344 12.773438s-21.007812-5.917969-32.152344-12.773438c-13.113281-8.070312-27.980468-17.226562-47.84375-17.226562-19.863281 0-34.746094 9.15625-47.871094 17.226562-11.132812 6.855469-20.753906 12.773438-32.136718 12.773438-11.367188 0-20.992188-5.917969-32.125-12.773438-13.125-8.070312-29.007813-17.226562-48.871094-17.226562h-15v61.855469c5.046875-1.128907 9.863281-1.644531 14.507812-1.644531 17.84375 0 34.050782 7.609374 49.347657 17.015624 11.148437 6.855469 20.773437 12.773438 32.140625 12.773438 11.382812 0 21.003906-5.917969 32.136718-12.773438 13.125-8.070312 28.007813-17.226562 47.871094-17.226562 19.863282 0 34.730469 9.15625 47.84375 17.226562 11.144532 6.855469 20.769532 12.773438 32.152344 12.773438s21.007812-5.917969 32.152344-12.773438c13.109375-8.070312 27.980468-17.226562 47.84375-17.226562 19.863281 0 34.746094 9.15625 47.871094 17.226562 11.132812 6.855469 20.753906 12.773438 32.136718 12.773438 11.382813 0 21.007813-5.917969 32.140625-12.773438 15.492188-9.535156 30.703125-16.914062 48.316407-16.914062 4.660156 0 10.492187.515625 15.539062 1.648438v-61.960938zm0 0"/><path d="m495.914062 421.761719c-12.46875 0-22.167968 5.929687-32.050781 12.011719-13.113281 8.070312-27.996093 17.226562-47.859375 17.226562-19.863281 0-34.746094-9.15625-47.871094-17.226562-11.132812-6.855469-20.753906-12.773438-32.136718-12.773438-11.367188 0-20.992188 5.917969-32.125 12.773438-13.125 8.070312-28.007813 17.226562-47.871094 17.226562s-34.746094-9.15625-47.871094-17.226562c-11.132812-6.855469-20.757812-12.773438-32.125-12.773438-11.382812 0-21.003906 5.917969-32.136718 12.773438-13.125 8.070312-28.007813 17.226562-47.871094 17.226562-19.863282 0-34.730469-9.15625-47.855469-17.226562-10.574219-6.5-21.261719-12.238282-33.304687-12.238282-4.550782 0-9.4375.820313-14.835938 2.730469v87.734375h512v-87.523438c-5.503906-1.910156-11.484375-2.714843-16.085938-2.714843zm0 0"/><path d="m123.257812 295.097656-5.144531 5.15625c-8.351562 8.347656-13.816406 18.457032-17.449219 29.125 3.484376-1.667968 7.878907-4.316406 11.765626-6.714844 14.839843-9.140624 35.1875-21.664062 63.574218-21.664062 28.375 0 48.722656 12.523438 63.574219 21.679688 6.023437 3.707031 13.535156 8.320312 16.421875 8.320312s10.398438-4.613281 16.4375-8.335938c14.835938-9.140624 35.183594-21.664062 63.558594-21.664062 28.390625 0 48.734375 12.523438 63.589844 21.679688 6.019531 3.707031 13.535156 8.320312 16.421874 8.320312 1.296876 0 3.609376-1.011719 6.238282-2.390625l-33.5-33.511719c4.085937-7.777344 7.453125-15.835937 10.078125-24.097656h7.175781c41.351562 0 75-33.648438 75-75v-15h-82.179688c-2.621093-8.261719-5.988281-16.316406-10.078124-24.097656l5.144531-5.15625c14.617187-14.617188 21.929687-33.820313 21.929687-53.027344 0-19.203125-7.3125-38.40625-21.929687-53.027344l-10.605469-10.605468-58.183594 58.171874c-7.78125-4.089843-15.835937-7.457031-24.097656-10.078124v-7.179688c0-41.351562-33.648438-76-75-76h-15v83.179688c-8.261719 2.621093-16.316406 5.988281-24.097656 10.078124l-5.15625-5.144531c-14.617188-14.617187-33.820313-21.929687-53.027344-21.929687-19.203125 0-38.40625 7.3125-53.027344 21.929687l-10.605468 10.605469 58.171874 58.183594c-4.089843 7.78125-7.457031 15.835937-10.078124 24.097656h-7.179688c-41.351562 0-75 33.648438-75 75v15h82.179688c2.621093 8.261719 5.988281 16.316406 10.078124 24.097656zm151.023438-153.472656 23.4375 18.75-40.503906 50.625h60l-79.496094 99.375-23.4375-18.75 40.503906-50.625h-60zm0 0"/></svg>