<svg height="512pt" viewBox="0 -15 512.001 512" width="512pt" xmlns="http://www.w3.org/2000/svg"><path d="m362.160156 106.691406-62.988281 62.984375 209.9375-43.316406-62.09375-62.097656 64.984375-64.261719-211.933594 44.59375zm0 0"/><path d="m332.882812 255.179688 63.640626-63.636719 84.851562 84.851562-63.640625 63.640625zm0 0"/><path d="m290.460938 85.472656-63.640626 63.640625-84.851562-84.851562 63.640625-63.640625zm0 0"/><path d="m332.886719 424.886719 63.640625-63.640625-84.855469-84.851563-63.640625 63.640625c-29.289062 29.289063-76.773438 29.289063-106.0625 0-29.292969-29.292968-29.292969-76.777344 0-106.066406l63.636719-63.640625-84.851563-84.855469-63.640625 63.640625c-76.152343 76.152344-76.152343 199.621094 0 275.773438 76.152344 76.148437 199.621094 76.152343 275.773438 0zm0 0"/></svg>