<svg height="512pt" viewBox="0 0 512 512" width="512pt" xmlns="http://www.w3.org/2000/svg"><path d="m181 60h30v30h-30zm0 0"/><path d="m241 60h240v30h-240zm0 0"/><path d="m151 75c0-24.8125 20.1875-45 45-45h225v-30h-225c-41.351562 0-75 33.648438-75 75v15h30zm0 0"/><path d="m30 121v30h30v30h241v-30h30v-30zm0 0"/><path d="m136 376c0 24.8125 20.1875 45 45 45s45-20.1875 45-45c0-11.03125-15.675781-43.535156-45-85.0625-29.324219 41.527344-45 74.03125-45 85.0625zm0 0"/><path d="m329.417969 309.289062-7.222657-14.222656c-14.558593-28.386718-21.195312-41.335937-21.195312-76.140625v-7.925781h-241c0 40.152344-3.039062 48.660156-21.195312 84.066406l-7.484376 14.765625c-20.789062 41.542969-31.320312 86.339844-31.320312 133.125v69.042969h361v-68.925781c0-46.199219-10.929688-92.460938-31.582031-133.785157zm-148.417969 141.710938c-41.351562 0-75-33.648438-75-75 0-33.105469 48.222656-99.859375 63.003906-119.53125l11.996094-15.964844 11.996094 15.964844c14.78125 19.671875 63.003906 86.425781 63.003906 119.53125 0 41.351562-33.648438 75-75 75zm0 0"/><path d="m331 218.925781c0 9.027344.507812 15.882813 1.589844 22.074219h119.410156v-30h30v-30h-151zm0 0"/><path d="m454.28125 271h-110.664062c1.667968 3.339844 10.902343 21.457031 12.59375 24.785156 22.777343 45.570313 34.789062 96.476563 34.789062 147.289063v68.925781h121v-38.71875c0-113.234375-48.648438-172.28125-57.71875-202.28125zm0 0"/></svg>