<svg height="512pt" viewBox="0 0 512 512" width="512pt" xmlns="http://www.w3.org/2000/svg"><path d="m181 60h30v30h-30zm0 0"/><path d="m241 60h240v30h-240zm0 0"/><path d="m151 75c0-24.8125 20.1875-45 45-45h225v-30h-225c-41.351562 0-75 33.648438-75 75v15h30zm0 0"/><path d="m60 181h241v-30h30v-30h-301v30h30zm0 0"/><path d="m322.195312 295.066406c-14.558593-28.386718-21.195312-41.335937-21.195312-76.140625v-7.925781c-140.066406 0-100.605469 0-241 0 0 40.152344-3.035156 48.660156-21.195312 84.066406l-7.484376 14.765625c-20.789062 41.542969-31.320312 86.339844-31.320312 133.125v69.042969h166v-53.46875c-16.628906-12.722656-60-50.3125-60-97.53125 0-57.039062 63.910156-100.621094 66.636719-102.449219l8.363281-5.625 8.363281 5.625c2.726563 1.828125 66.636719 45.410157 66.636719 102.449219 0 47.21875-43.371094 84.808594-60 97.53125v53.46875h165v-68.925781c0-46.199219-10.929688-92.460938-31.582031-133.785157zm0 0"/><path d="m196 418.585938c14.355469-14.46875 30-35.265626 30-57.585938 0-30.878906-29.972656-59.03125-45-71.207031-15.027344 12.175781-45 40.328125-45 71.207031 0 22.320312 15.644531 43.117188 30 57.585938v-87.585938h30zm0 0"/><path d="m331 218.925781c0 9.027344.507812 15.882813 1.589844 22.074219h119.410156v-30h30v-30h-151zm0 0"/><path d="m454.28125 271h-110.664062c1.667968 3.339844 10.902343 21.457031 12.59375 24.785156 22.777343 45.570313 34.789062 96.476563 34.789062 147.289063v68.925781h121v-38.71875c0-113.234375-48.648438-172.28125-57.71875-202.28125zm0 0"/></svg>