<svg height="512pt" viewBox="-61 0 512 512" width="512pt" xmlns="http://www.w3.org/2000/svg"><path d="m0 120h30v30h-30zm0 0"/><path d="m360 120h30v30h-30zm0 0"/><path d="m0 422h30v30h-30zm0 0"/><path d="m360 422h30v30h-30zm0 0"/><path d="m390 90v-30h-390v30h30v30h90v30h-90v272h90v30h-90v30h-30v30h390v-30h-30v-30h-90v-30h90v-272h-90v-30h90v-30zm-90 196c0 63-67.5 114.101562-90 129.101562v36.898438h-30v-36.898438c-22.5-15-90-66.101562-90-129.101562 0-57.21875 55.269531-108.277344 105-138.402344 49.632812 30.066406 105 81.175782 105 138.402344zm0 0"/><path d="m195.089844 182.84375c-20.464844 13.988281-75.089844 56.691406-75.089844 103.15625 0 35.550781 33.507812 71.125 60 92.078125v-55.867187l-40.605469-40.605469 21.210938-21.210938 19.394531 19.394531v-54.789062h30v54.789062l19.394531-19.394531 21.210938 21.210938-40.605469 40.605469v55.753906c24.492188-19.210938 60-54.394532 60-91.964844 0-42.714844-48.515625-85.316406-74.910156-103.15625zm0 0"/><path d="m210 0h120v30h-120zm0 0"/></svg>