<svg height="512pt" viewBox="0 0 512 512" width="512pt" xmlns="http://www.w3.org/2000/svg"><path d="m403.980469 90.058594c-28.050781-55.0625-85.5625-90.058594-147.980469-90.058594-62.488281 0-119.324219 35.359375-147.273438 90.835938-61.128906 6.105468-108.726562 57.746093-108.726562 120.164062 0 66.167969 53.832031 121 120 121h302c49.628906 0 90-41.371094 90-91 0-25.78125-11.234375-50.289062-30.453125-67.296875 5.144531-43.863281-31.84375-86.058594-77.566406-83.644531zm0 0"/><path d="m180 452h76c8.277344 0 15 6.722656 15 15s-6.722656 15-15 15v30c24.8125 0 45-20.1875 45-45s-20.1875-45-45-45h-76zm0 0"/><path d="m467 362v30c8.277344 0 15 6.722656 15 15s-6.722656 15-15 15h-136v30h136c24.8125 0 45-20.1875 45-45s-20.1875-45-45-45zm0 0"/><path d="m90 482h121v30h-121zm0 0"/><path d="m361 482h91v30h-91zm0 0"/><path d="m30 482h30v30h-30zm0 0"/><path d="m30 362h30v30h-30zm0 0"/><path d="m211 362h30v30h-30zm0 0"/><path d="m271 362h121v30h-121zm0 0"/><path d="m0 452h105c24.8125 0 45-20.1875 45-45s-20.1875-45-45-45v30c8.277344 0 15 6.722656 15 15s-6.722656 15-15 15h-105zm0 0"/></svg>