<svg height="512pt" viewBox="-46 0 512 512" width="512pt" xmlns="http://www.w3.org/2000/svg"><path d="m375 211v-61h-330v61h-45v30h45v271h330v-271h45v-30zm-180 240v-52.46875c-16.628906-12.722656-60-50.3125-60-97.53125 0-44.597656 37.511719-82.566406 75-108.074219 37.328125 25.398438 75 63.511719 75 108.074219 0 47.21875-43.371094 84.808594-60 97.53125v52.46875zm0 0"/><path d="m255 301c0-30.878906-29.972656-59.03125-45-71.207031-15.027344 12.175781-45 40.328125-45 71.207031 0 22.320312 15.644531 43.117188 30 57.585938v-87.585938h30v87.585938c14.355469-14.46875 30-35.265626 30-57.585938zm0 0"/><path d="m135 0v60h-120v60h390v-60h-120v-60zm120 60h-90v-30h90zm0 0"/></svg>