<svg height="512pt" viewBox="0 -28 512 512" width="512pt" xmlns="http://www.w3.org/2000/svg"><path d="m391 243.621094c50.554688-7.371094 90-50.679688 90-103.480469v-15h-15c-29.550781 0-56 12.335937-75 31.929687v-10.757812c9.628906-10.203125 30-35.351562 30-66.171875 0-39.386719-33.558594-69.886719-34.996094-71.175781l-10.003906-8.964844-10.003906 8.964844c-1.4375 1.289062-34.996094 31.789062-34.996094 71.175781 0 30.820313 20.371094 55.96875 30 66.171875v10.757812c-19-19.59375-45.449219-31.929687-75-31.929687h-15v15c0 52.730469 39.390625 96.101563 90 103.480469v31.519531h-210v-31.519531c50.554688-7.371094 90-50.679688 90-103.480469v-15h-15c-29.550781 0-56 12.335937-75 31.929687v-10.757812c9.628906-10.203125 30-35.351562 30-66.171875 0-39.386719-33.558594-69.886719-34.996094-71.175781l-10.003906-8.964844-10.003906 8.964844c-1.4375 1.289062-34.996094 31.789062-34.996094 71.175781 0 30.820313 20.371094 55.96875 30 66.171875v10.757812c-19-19.59375-45.449219-31.929687-75-31.929687h-15v15c0 52.730469 39.390625 96.101563 90 103.480469v31.519531h-121v60h121v30h-121v90h512v-60h-121v-30h121v-90h-121zm-150 151.519531h-90v-30h90zm120-30h-90v-30h90zm0 0"/></svg>