<svg height="512pt" viewBox="0 0 512 512" width="512pt" xmlns="http://www.w3.org/2000/svg"><path d="m361 241h30v30h-30zm0 0"/><path d="m421 241h30v30h-30zm0 0"/><path d="m271 331h241v-30h-181v-90h181v-54.273438l-151-75v60l-90-45zm0 0"/><path d="m481 241h31v30h-31zm0 0"/><path d="m91 241h60v90h-60zm0 0"/><path d="m241 331v-180c-87.488281 0-152.386719 0-241 0v180h61v-120h120v120zm0 0"/><path d="m0 0h91v121h-91zm0 0"/><path d="m0 512h91v-77.96875l-21.679688 14.449219-16.640624-24.960938 53.320312-35.550781 53.320312 35.550781-16.640624 24.960938-21.679688-14.449219v77.96875h120v-77.96875l-21.679688 14.449219-16.640624-24.960938 53.320312-35.550781 53.320312 35.550781-16.640624 24.960938-21.679688-14.449219v77.96875h120v-77.96875l-21.679688 14.449219-16.640624-24.960938 53.320312-35.550781 53.320312 35.550781-16.640624 24.960938-21.679688-14.449219v77.96875h91v-151h-512zm0 0"/><path d="m121 0h90v121h-90zm0 0"/></svg>