<svg height="512pt" viewBox="-61 0 512 512" width="512pt" xmlns="http://www.w3.org/2000/svg"><path d="m0 120h30v30h-30zm0 0"/><path d="m360 120h30v30h-30zm0 0"/><path d="m0 422h30v30h-30zm0 0"/><path d="m360 422h30v30h-30zm0 0"/><path d="m210 0h120v30h-120zm0 0"/><path d="m135 301c0 33.089844 26.910156 60 60 60s60-26.910156 60-60c0-23.863281-38.699219-71.707031-60-97.371094-21.300781 25.664063-60 73.507813-60 97.371094zm0 0"/><path d="m390 90v-30h-390v30h30v30h90v30h-90v272h90v30h-90v30h-30v30h390v-30h-30v-30h-90v-30h90v-272h-90v-30h90v-30zm-105 211c0 49.628906-40.371094 90-90 90s-90-40.371094-90-90c0-32.226562 31.917969-74.359375 67.484375-117.207031 13.359375-16.144531 8.804687-10.792969 22.515625-27.800781 13.730469 17.03125 9.148438 11.648437 22.515625 27.800781 35.566406 42.847656 67.484375 84.980469 67.484375 117.207031zm0 0"/></svg>