<svg height="512pt" viewBox="0 0 512 512" width="512pt" xmlns="http://www.w3.org/2000/svg"><path d="m402.980469 90.058594c-28.050781-55.0625-84.5625-90.058594-146.980469-90.058594-62.488281 0-119.324219 35.359375-147.273438 90.835938-61.128906 6.105468-108.726562 57.746093-108.726562 120.164062 0 66.167969 54.832031 121 121 121h300c49.628906 0 91-41.371094 91-91 0-25.78125-11.234375-50.289062-30.453125-67.296875 5.152344-43.921875-32.929687-86.132813-78.566406-83.644531zm0 0"/><path d="m61 482h30v30h-30zm0 0"/><path d="m121 422h30v30h-30zm0 0"/><path d="m181 482h30v30h-30zm0 0"/><path d="m241 422h30v30h-30zm0 0"/><path d="m301 482h30v30h-30zm0 0"/><path d="m361 422h30v30h-30zm0 0"/><path d="m421 482h30v30h-30zm0 0"/><path d="m421 362h30v30h-30zm0 0"/><path d="m301 362h30v30h-30zm0 0"/><path d="m181 362h30v30h-30zm0 0"/><path d="m61 362h30v30h-30zm0 0"/></svg>