<svg height="512pt" viewBox="-61 0 512 512" width="512pt" xmlns="http://www.w3.org/2000/svg"><path d="m240 301c0-30.878906-29.972656-60.03125-45-72.207031-15.027344 12.175781-45 41.328125-45 72.207031 0 22.320312 15.644531 43.117188 30 57.585938v-87.585938h30v87.585938c14.355469-14.46875 30-35.265626 30-57.585938zm0 0"/><path d="m261.210938 0h-132.421876l-60 60h252.421876zm0 0"/><path d="m60 90h60v60h-60zm0 0"/><path d="m270 90h60v60h-60zm0 0"/><path d="m360 120v60h-120v-60h-90v60h-120v-60h-30v392h390v-392zm-180 331v-52.46875c-16.628906-12.722656-60-50.3125-60-97.53125 0-44.597656 37.511719-83.566406 75-109.074219 37.328125 25.398438 75 64.511719 75 109.074219 0 47.21875-43.371094 84.808594-60 97.53125v52.46875zm0 0"/></svg>