<svg height="512pt" viewBox="0 -61 512 512" width="512pt" xmlns="http://www.w3.org/2000/svg"><path d="m482 120c0 10.019531-4.980469 19.351562-13.328125 24.945312-4.21875 2.832032-12.507813 6.238282-23.335937 4.007813-19.992188-68.621094-84.34375-118.953125-159.335938-118.953125 0 0-96.941406.101562-100.371094.320312-10.691406-18.511718-30.570312-30.320312-52.589844-30.320312h-78.484374l27.640624 75.6875c-13.359374 12.804688-24.578124 27.863281-33.015624 44.3125h-49.179688v114.273438l43.039062 21.019531c10.183594 25.855469 26.617188 48.546875 47.960938 66.285156v68.421875h85.8125l10.164062-30.496094c2.972657.304688 5.976563.496094 9.023438.496094h90c3.046875 0 6.050781-.191406 9.023438-.496094l10.164062 30.496094h85.8125v-68.421875c38.230469-31.613281 61-77.332031 61-126.578125 0-5.085938-.3125-10.101562-.765625-15.070312.285156.003906.570313.085937.851563.085937 11.777343 0 23.25-3.414063 33.296874-10.152344 16.671876-11.175781 26.617188-29.808593 26.617188-49.863281v-30h-30zm-331 30h-30v-30h30zm90 179.078125v-89.078125h-87.816406l117.816406-179.078125v89.078125h87.816406zm0 0"/><path d="m241 161.089844-32.183594 48.910156h62.183594v18.910156l32.183594-48.910156h-62.183594zm0 0"/></svg>