<svg height="512pt" viewBox="-61 0 512 512" width="512pt" xmlns="http://www.w3.org/2000/svg"><path d="m210 406.964844c24.492188-19.210938 60-53.394532 60-90.964844 0-42.714844-48.515625-85.316406-74.910156-103.15625-20.464844 13.988281-75.089844 56.691406-75.089844 103.15625 0 35.550781 33.507812 70.125 60 91.078125v-54.867187l-40.605469-40.605469 21.210938-21.210938 19.394531 19.394531v-54.789062h30v54.789062l19.394531-19.394531 21.210938 21.210938-40.605469 40.605469zm0 0"/><path d="m233.773438 120h66.226562v-30h-54.230469zm0 0"/><path d="m0 451v61h180v-67.820312c-22.609375-15.082032-90-65.28125-90-128.179688 0-57.375 55.699219-108.640625 105-138.476562 49.28125 29.824218 105 81.089843 105 138.476562 0 62.898438-67.390625 113.097656-90 128.179688v67.820312h180v-61h-90v-30h90v-211h-90v-30h90v-180h-205.152344l-48 120h-136.847656v60h90v30h-90v211h90v30zm225.46875-391h104.53125v90h-140.523438zm0 0"/><path d="m30 60h90v30h-90zm0 0"/></svg>