<svg height="512pt" viewBox="0 -31 512 512" width="512pt" xmlns="http://www.w3.org/2000/svg"><path d="m181 150v210h150v-210zm56.71875 189.375-23.4375-18.75 40.503906-50.625h-60l79.496094-99.375 23.4375 18.75-40.503906 50.625h60zm0 0"/><path d="m30 150v210h121v-210zm91 180h-30v-30h30zm0-120h-30v-30h30zm0 0"/><path d="m361 150v210h121v-210zm60 180h-30v-30h30zm0-120h-30v-30h30zm0 0"/><path d="m0 60h512v60h-512zm0 0"/><path d="m0 390h512v60h-512zm0 0"/><path d="m61 0h90v30h-90zm0 0"/><path d="m361 0h90v30h-90zm0 0"/></svg>