<svg height="512pt" viewBox="0 -15 512 512" width="512pt" xmlns="http://www.w3.org/2000/svg"><path d="m155.511719 361h85.488281v120l115.488281-210h-85.488281v-117.890625zm0 0"/><path d="m482 166c0-42.363281-37.121094-77.226562-79.019531-74.941406-28.050781-55.0625-84.5625-91.058594-146.980469-91.058594-62.488281 0-119.324219 36.359375-147.273438 91.835938-61.128906 6.105468-108.726562 56.746093-108.726562 119.164062 0 66.167969 54.832031 120 121 120h16.851562l163.148438-293.671875v203.671875h106.230469l-49.496094 90h63.265625c49.628906 0 91-40.371094 91-90 0-25.78125-11.234375-50.289062-30.453125-67.296875.308594-2.621094.453125-5.167969.453125-7.703125zm0 0"/></svg>