<svg height="512pt" viewBox="0 0 512 512" width="512pt" xmlns="http://www.w3.org/2000/svg"><path d="m331 241c0 49.628906 40.371094 90 90 90s91-40.371094 91-90-41.371094-90-91-90c-4.699219 0-9.21875.691406-13.726562 1.386719l-40.457032-122.386719h49.644532l41.21875 27.480469 16.640624-24.960938-48.78125-32.519531h-100.355468l20.003906 60h-139.914062l-15-30h50.726562v-30h-120v30h35.726562l22.054688 44.109375-53.019531 84.316406c-10.867188-4.5625-22.503907-7.425781-34.761719-7.425781-49.628906 0-91 40.371094-91 90s41.371094 90 91 90c38.382812 0 72.082031-24.644531 84.636719-60h65.363281v76c0 8.277344-6.722656 15-15 15h-181c-24.8125 0-45 20.1875-45 45s20.1875 45 45 45h257.519531c6.96875 34.191406 37.265625 60 73.480469 60h75v-30h61v-30h-61v-30h61v-30h-61v-30h-75c-36.214844 0-66.511719 25.808594-73.480469 60h-257.519531c-8.277344 0-15-6.722656-15-15s6.722656-15 15-15h181c24.8125 0 45-20.1875 45-45v-78.761719c17.421875-6.214843 30-22.707031 30-42.238281 0-14.84375-7.3125-27.921875-18.425781-36.121094l78.238281-83.011718 18.035156 55.101562c-28.324218 15.179688-47.847656 44.710938-47.847656 79.03125zm30 181h30v30h-30zm-270-121c-33.089844 0-61-26.910156-61-60s27.910156-60 61-60c8.703125 0 16.988281 2.035156 24.613281 5.472656-16.007812 8.261719-24.613281 23.082032-24.613281 39.527344 0 24.8125 20.1875 44.988281 45 44.988281h6.855469c-10.519531 18.074219-30.0625 30.011719-51.855469 30.011719zm66.316406-120c-2.023437-2.238281-3.992187-4.53125-6.195312-6.53125l43.3125-69.058594 37.292968 75.589844zm102.558594-10.796875-39.601562-80.203125h115.160156zm128.5625 20.53125 18.339844 55.011719 28.445312-9.492188-18.277344-54.84375c1.367188-.09375 2.667969-.410156 4.054688-.410156 33.09375 0 61 26.910156 61 60s-27.90625 60-61 60c-33.089844 0-60-26.910156-60-60 0-21.074219 10.964844-39.558594 27.4375-50.265625zm0 0"/></svg>