<svg height="512pt" viewBox="0 0 512 512" width="512pt" xmlns="http://www.w3.org/2000/svg"><path d="m407 30.464844c-13.683594-18.378906-36.378906-30.464844-61-30.464844h-45v45c0 36.214844 25.808594 67.511719 60 74.480469v22.742187l10.238281 8.777344h80.761719v-31.519531c34.191406-6.96875 60-38.265625 60-74.480469v-45h-45c-24.621094 0-46.316406 12.085938-60 30.464844zm0 0"/><path d="m407.238281 181 44.761719 38.363281v-38.363281zm0 0"/><path d="m422 351.699219-166-141.300781-166 141.300781v130.300781h-90v30h512v-30h-90zm-166-80.699219c24.902344 0 45 20.097656 45 45 0 24.898438-20.097656 45-45 45s-45-20.101562-45-45c0-24.902344 20.097656-45 45-45zm75 211h-30v-61h-90v61h-30v-91h150zm0 0"/><path d="m1.40625 309.101562 49.53125 36.578126 205.0625-174.933594 205.0625 174.933594 49.53125-36.578126-254.59375-217.371093zm0 0"/><path d="m256 331c8.277344 0 15-6.722656 15-15s-6.722656-15-15-15-15 6.722656-15 15 6.722656 15 15 15zm0 0"/></svg>