<svg height="512pt" viewBox="0 0 512 511" width="512pt" xmlns="http://www.w3.org/2000/svg"><path d="m452 150.433594h60v30h-60zm0 0"/><path d="m0 150.433594h60v30h-60zm0 0"/><path d="m417.382812 275.929688 51.957032 30 15-25.988282-51.957032-30zm0 0"/><path d="m94.617188 54.941406-51.957032-30-15 25.988282 51.957032 30zm0 0"/><path d="m484.339844 50.929688-15-25.988282-51.957032 30 15 25.988282zm0 0"/><path d="m27.660156 279.941406 15 25.988282 51.957032-30-15-25.988282zm0 0"/><path d="m359.988281 37.320312c-38.757812-31.496093-89.574219-43.566406-139.394531-33.179687-64.746094 13.507813-115.824219 66.636719-127.089844 132.1875-12.421875 72.230469 23.320313 143.144531 87.496094 175.929687v18.175782h150v-18.175782c54.988281-28.097656 90-84.683593 90-146.824218 0-49.90625-22.234375-96.605469-61.011719-128.113282zm-103.988281 233.113282c-41.351562 0-75-33.644532-75-75 0-35.90625 53.539062-106.933594 75-135.496094 21.460938 28.5625 75 99.589844 75 135.496094 0 41.355468-33.648438 75-75 75zm0 0"/><path d="m211 195.433594c0 24.816406 20.1875 45 45 45s45-20.183594 45-45c0-11.027344-15.675781-43.535156-45-85.0625-29.324219 41.527344-45 74.035156-45 85.0625zm0 0"/><path d="m151 390.433594h30v30h-30v30h210v-30h-30v-30h30v-30c-70.28125 0-140.101562 0-210 0zm0 0"/><path d="m211 480.433594h90v32h-90zm0 0"/></svg>