<svg height="512pt" viewBox="-61 0 512 512" width="512pt" xmlns="http://www.w3.org/2000/svg"><path d="m180 226h30v87.585938c14.355469-14.46875 30-35.265626 30-57.585938 0-30.878906-29.972656-59.03125-45-71.207031-15.027344 12.175781-45 40.328125-45 71.207031 0 22.320312 15.644531 43.117188 30 57.585938zm0 0"/><path d="m0 181h30v30h-30zm0 0"/><path d="m360 181h30v30h-30zm0 0"/><path d="m0 331h30v30h-30zm0 0"/><path d="m360 331h30v30h-30zm0 0"/><path d="m90 482h210v30h-210zm0 0"/><path d="m105 331v30h-75v15c0 41.398438 33.601562 76 75 76h180c41.398438 0 75-34.601562 75-76v-15h-75v-30h75v-120h-75v-30h75v-15c0-41.398438-33.601562-75-75-75h-15v-61h30v-30h-210v30h30v61h-15c-41.398438 0-75 33.601562-75 75v15h75v30h-75v120zm75-271h30v31h-30zm15 88c37.46875 25.476562 75 63.527344 75 108 0 47.101562-43.5 84.898438-60 97.5v37.5h-30v-37.5c-16.5-12.601562-60-50.398438-60-97.5 0-44.5625 37.472656-82.480469 75-108zm0 0"/></svg>