<svg height="512pt" viewBox="0 0 512 512" width="512pt" xmlns="http://www.w3.org/2000/svg"><path d="m0 60h272v61h-272zm0 0"/><path d="m0 451h272v61h-272zm0 0"/><path d="m181 286c0-30.878906-29.972656-59.03125-45-71.207031-15.027344 12.175781-45 40.328125-45 71.207031 0 22.320312 15.644531 43.117188 30 57.585938v-87.585938h30v87.585938c14.355469-14.46875 30-35.265626 30-57.585938zm0 0"/><path d="m482 0h-30v60h-30v-60h-30v60h-30v76c0 36.214844 25.808594 66.511719 60 73.480469v256.519531c0 8.277344-6.722656 15-15 15s-15-6.722656-15-15v-180c0-24.8125-20.1875-45-45-45h-75v-90h-272v270h121v-37.46875c-16.628906-12.722656-60-50.3125-60-97.53125 0-44.597656 37.511719-82.566406 75-108.074219 37.328125 25.398438 75 63.511719 75 108.074219 0 47.21875-43.371094 84.808594-60 97.53125v37.46875h121v-150h75c8.277344 0 15 6.722656 15 15v180c0 24.8125 20.1875 45 45 45s45-20.1875 45-45v-256.519531c34.191406-6.96875 60-37.265625 60-73.480469v-76h-30zm-30 151h-30v-30h30zm0 0"/><path d="m61 0h150v30h-150zm0 0"/></svg>