<svg height="512pt" viewBox="0 0 512 512" width="512pt" xmlns="http://www.w3.org/2000/svg"><path d="m30 61v30h69.273438l-15-30zm0 0"/><path d="m481 61h-54.273438l-15 30h69.273438zm0 0"/><path d="m512 422v-30h-61v-30h-75c-36.21875 0-66.511719 25.808594-73.480469 60h-257.519531c-8.28125 0-15-6.71875-15-15s6.71875-15 15-15h181c24.808594 0 45-20.191406 45-45v-75h30v-60h-90v60h30v75c0 8.28125-6.71875 15-15 15h-181c-24.808594 0-45 20.191406-45 45s20.191406 45 45 45h257.519531c6.96875 34.191406 37.261719 60 73.480469 60h75v-30h61v-30h-61v-30zm-121 30h-30v-30h30zm0 0"/><path d="m30 182h84.273438l45 90h21.726562v-90h150v90h20.726562l45-90h84.273438v-61h-451zm0 0"/><path d="m30 272h95.726562l-30-60h-65.726562zm0 0"/><path d="m481 212h-65.726562l-30 60h95.726562zm0 0"/><path d="m286 61c24.402344 0 45.910156 11.894531 59.617188 30h64.59375l-22.492188-91h-264.4375l-22.492188 91h125.59375c13.707032-18.105469 35.214844-30 59.617188-30zm0 0"/><path d="m331 302h90v30h-90zm0 0"/><path d="m90 302h91v30h-91zm0 0"/></svg>