<svg height="512pt" viewBox="0 0 512 512" width="512pt" xmlns="http://www.w3.org/2000/svg"><path d="m166 241c-8.277344 0-15 6.722656-15 15s6.722656 15 15 15 15-6.722656 15-15-6.722656-15-15-15zm0 0"/><path d="m241 420.238281c4.949219.449219 9.9375.761719 15 .761719s10.050781-.3125 15-.761719v-29.238281h-30zm0 0"/><path d="m271 91.761719c-4.949219-.449219-9.9375-.761719-15-.761719s-10.050781.3125-15 .761719v29.238281h30zm0 0"/><path d="m331 256c0 8.277344 6.722656 15 15 15s15-6.722656 15-15-6.722656-15-15-15-15 6.722656-15 15zm0 0"/><path d="m0 0v512h512v-512zm256 451c-107.519531 0-195-87.480469-195-195s87.480469-195 195-195 195 87.480469 195 195-87.480469 195-195 195zm0 0"/><path d="m301 97.394531v53.605469h-90v-53.605469c-69.148438 19.65625-120 83.238281-120 158.605469s50.851562 138.949219 120 158.605469v-53.605469h90v53.605469c69.148438-19.65625 120-83.238281 120-158.605469s-50.851562-138.949219-120-158.605469zm-135 203.605469c-24.8125 0-45-20.1875-45-45s20.1875-45 45-45 45 20.1875 45 45-20.1875 45-45 45zm225-45c0 24.8125-20.1875 45-45 45s-45-20.1875-45-45 20.1875-45 45-45 45 20.1875 45 45zm0 0"/></svg>