<svg height="512pt" viewBox="-91 0 512 512" width="512pt" xmlns="http://www.w3.org/2000/svg"><path d="m163.007812 78.117188c-18.730468-28.875-51.105468-48.117188-88.007812-48.117188h-45v15c0 57.890625 47.109375 106 105 106h15v31.070312c-57.511719 5.253907-106.59375 39.835938-131.785156 88.929688h116.785156c24.8125 0 45 20.1875 45 45s-20.1875 45-45 45c-8.277344 0-15 6.722656-15 15s6.722656 15 15 15c24.8125 0 45 20.1875 45 45v76c57.566406-5.21875 106.582031-41.878906 131.785156-91h-56.785156c-24.8125 0-45-20.1875-45-45s20.1875-45 45-45h74.238281c-7.15625-78.957031-70.316406-141.316406-149.238281-148.566406v-31.433594h15c74.441406 0 135-61.558594 135-136v-15h-45c-54.054688 0-100.449219 32.132812-121.992188 78.117188zm46.992188 192.882812h30v30h-30zm0 0"/><path d="m135 331c8.277344 0 15-6.722656 15-15s-6.722656-15-15-15h-128.605469c-4.070312 14.328125-6.394531 29.386719-6.394531 45 0 85.917969 66.03125 158.386719 150 166v-76c0-8.277344-6.722656-15-15-15-24.8125 0-45-20.1875-45-45s20.1875-45 45-45zm0 0"/><path d="m240 376c0 8.277344 6.722656 15 15 15h68.605469c2.75-9.683594 4.699219-19.6875 5.632812-30h-74.238281c-8.277344 0-15 6.722656-15 15zm0 0"/></svg>