<svg height="512pt" viewBox="0 0 512 512" width="512pt" xmlns="http://www.w3.org/2000/svg"><path d="m402.699219 241h-56.699219c-24.902344 0-45-20.101562-45-45 0-24.902344 20.097656-45 45-45h74.097656c-7.5-84-78.296875-151-164.097656-151-63.898438 0-119.398438 37.597656-146.699219 91h116.699219c24.902344 0 45 20.097656 45 45 0 24.898438-20.097656 45-45 45-8.402344 0-15 6.597656-15 15 0 8.398438 6.597656 15 15 15 24.902344 0 45 20.097656 45 45v75.097656c57.597656-5.097656 106.800781-40.898437 131.699219-90.097656zm-101.699219-150h30v30h-30zm0 0"/><path d="m226 241c-24.902344 0-45-20.101562-45-45 0-24.902344 20.097656-45 45-45 8.402344 0 15-6.601562 15-15 0-8.402344-6.597656-15-15-15h-128.699219c-4.199219 14.398438-6.300781 29.398438-6.300781 45 0 85.800781 66 157.597656 150 165.097656v-75.097656c0-8.402344-6.597656-15-15-15zm0 0"/><path d="m331 196c0 8.398438 6.597656 15 15 15h68.699219c2.699219-9.601562 4.800781-19.800781 5.398437-30h-74.097656c-8.402344 0-15 6.597656-15 15zm0 0"/><path d="m451 362h-75c-36.214844 0-66.511719 25.808594-73.480469 60h-257.519531c-8.402344 0-15-6.601562-15-15 0-8.402344 6.597656-15 15-15h181c24.902344 0 45-20.101562 45-45v-15.902344c-4.800781.601563-9.902344.902344-15 .902344s-10.199219-.300781-15-.902344v15.902344c0 8.398438-6.597656 15-15 15h-181c-24.902344 0-45 20.097656-45 45 0 24.898438 20.097656 45 45 45h257.519531c6.96875 34.191406 37.265625 60 73.480469 60h75v-30h61v-30h-61v-30h61v-30h-61zm-60 90h-30v-30h30zm0 0"/></svg>