<svg height="512pt" viewBox="0 0 512 512" width="512pt" xmlns="http://www.w3.org/2000/svg"><path d="m91 391h60v121h-60zm0 0"/><path d="m0 512h61v-151h120v151h60v-211h-241zm0 0"/><path d="m362 286-91-67.5v293.5h241v-61h-180v-90h180v-52.5l-150-112.5zm0 0"/><path d="m362 391h30v30h-30zm0 0"/><path d="m482 391h30v30h-30zm0 0"/><path d="m422 391h30v30h-30zm0 0"/><path d="m37.273438 271h137.453124l-12.859374-90h-111.734376zm0 0"/><path d="m211 45v-45h-45c-24.621094 0-46.316406 12.085938-60 30.464844-13.683594-18.378906-35.378906-30.464844-60-30.464844h-46v45c0 35.484375 25.847656 66.140625 59.007812 73.882812l-4.589843 32.117188h103.164062l-4.589843-32.117188c33.160156-7.742187 58.007812-38.398437 58.007812-73.882812zm0 0"/></svg>