<svg height="512pt" viewBox="0 0 512 512" width="512pt" xmlns="http://www.w3.org/2000/svg"><path d="m271 301h60v60h-60zm0 0"/><path d="m181 211h60v60h-60zm0 0"/><path d="m91 301h60v60h-60zm0 0"/><path d="m271 211h60v60h-60zm0 0"/><path d="m181 301h60v60h-60zm0 0"/><path d="m91 211h60v60h-60zm0 0"/><path d="m0 451h91v31h-30v30h150v-30h-30v-31h150v31h-30v30h150v-30h-30v-31h91v-331h-512zm61-270h390v210h-390zm0 0"/><path d="m361 301h60v60h-60zm0 0"/><path d="m361 211h60v60h-60zm0 0"/><path d="m146.589844 54.507812-15 25.984376 16.46875 9.507812h215.882812l16.46875-9.507812-15-25.984376-27.351562 15.789063c-5.105469-6.457031-10.898438-12.25-17.355469-17.355469l15.789063-27.351562-25.984376-15-15.625 27.070312c-7.554687-3.03125-15.589843-4.941406-23.882812-6.144531v-31.515625h-30v31.515625c-8.292969 1.203125-16.328125 3.117187-23.882812 6.144531l-15.625-27.070312-25.984376 15 15.789063 27.351562c-6.457031 5.105469-12.25 10.898438-17.355469 17.355469zm0 0"/></svg>