<svg height="512pt" viewBox="-61 0 512 512" width="512pt" xmlns="http://www.w3.org/2000/svg"><path d="m210 406.964844c24.492188-19.210938 60-53.394532 60-90.964844 0-42.714844-48.515625-84.316406-74.910156-102.15625-20.464844 13.988281-75.089844 55.691406-75.089844 102.15625 0 35.550781 33.507812 70.125 60 91.078125v-54.867187l-40.605469-40.605469 21.210938-21.210938 19.394531 19.394531v-53.789062h30v53.789062l19.394531-19.394531 21.210938 21.210938-40.605469 40.605469zm0 0"/><path d="m270 136.175781v-46.175781h-150v46.175781c-72.203125 30.101563-120 101.074219-120 179.824219 0 102.457031 79.484375 188.289062 180 196v-66.820312c-22.609375-15.082032-90-66.28125-90-129.179688 0-57.375 55.699219-107.640625 105-137.476562 49.28125 29.824218 105 80.089843 105 137.476562 0 62.898438-67.390625 114.097656-90 129.179688v66.820312c100.515625-7.710938 180-93.542969 180-196 0-78.75-47.796875-149.722656-120-179.824219zm0 0"/><path d="m270 60v-30h30v-30h-210v30h30v30zm0 0"/></svg>