<svg height="512pt" viewBox="-61 0 512 512" width="512pt" xmlns="http://www.w3.org/2000/svg"><path d="m270 60v-30h30v-30h-210v30h30v30zm0 0"/><path d="m180 268.890625-34.511719 62.109375h64.511719v32.109375l34.511719-62.109375h-64.511719zm0 0"/><path d="m270 136.175781v-46.175781h-150v46.175781c-72.203125 30.101563-120 101.074219-120 179.824219 0 107.519531 87.480469 196 195 196s195-88.480469 195-196c0-78.75-47.796875-149.722656-120-179.824219zm-90 343.714844v-118.890625h-85.488281l115.488281-207.890625v117.890625h85.488281zm0 0"/></svg>