<svg height="512pt" viewBox="0 -16 512 512" width="512pt" xmlns="http://www.w3.org/2000/svg"><path d="m482.472656 147.484375-124.953125-34.441406-34.949219 121.445312 27.992188-13.503906 93.992188 161.25 67.445312-124.933594-57.550781-96.371093zm0 0"/><path d="m87.039062 109.015625-28.019531-16.53125 34.980469 124.472656 124.949219-31.445312-27.992188-16.496094 99.6875-169.015625h-138.558593zm0 0"/><path d="m316 390-90-90v30h-185.699219l60 120h125.699219v30zm0 0"/><path d="m0 251.71875 25.175781 48.28125h87.191407l39.976562-66.796875-79.332031 19.964844-23.242188-82.703125zm0 0"/><path d="m417.773438 98.527344-57.859376-98.527344h-34.433593l-52.480469 88.976562 40.410156 68.886719 23.492188-81.617187zm0 0"/><path d="m298.421875 330 60 60-60 60h110.097656l19.46875-36.609375-48.605469-83.390625zm0 0"/></svg>