<svg height="512pt" viewBox="0 -15 512 512" width="512pt" xmlns="http://www.w3.org/2000/svg"><path d="m346 151c0-32.226562-31.917969-80.351562-67.484375-123.195312-13.359375-16.148438-8.804687-10.792969-22.515625-27.804688-13.730469 17.035156-9.152344 11.652344-22.515625 27.804688-35.566406 42.84375-67.484375 90.96875-67.484375 123.195312 0 49.628906 40.371094 90 90 90s90-40.371094 90-90zm0 0"/><path d="m451 136v107.226562l-77.796875 108.910157-24.40625-17.429688 69.804687-97.734375c-12.195312-8.125-26.761718-12.1875-41.722656-11.03125-19.394531 1.375-37.222656 11.074219-48.867187 26.628906l-57.011719 76.011719v153.417969h150v-41.839844l91-150v-199.160156h-15c-24.851562 0-46 20.148438-46 45zm0 0"/><path d="m241 482v-153.417969l-57.011719-76.011719c-11.644531-15.554687-29.472656-25.253906-48.867187-26.628906-14.960938-1.15625-29.527344 2.90625-41.722656 11.03125l69.804687 97.734375-24.40625 17.429688-77.796875-108.910157v-107.226562c0-24.851562-21.148438-45-46-45h-15v199.160156l91 150v41.839844zm0 0"/></svg>