<svg height="512pt" viewBox="0 -15 512 512" width="512pt" xmlns="http://www.w3.org/2000/svg"><path d="m153.183594 181h87.816406v89.078125l117.816406-179.078125h-87.816406v-91zm0 0"/><path d="m451 136v107.226562l-77.796875 108.910157-24.40625-17.429688 69.804687-97.734375c-12.195312-8.125-26.761718-12.1875-41.722656-11.03125-19.394531 1.375-37.222656 11.074219-48.867187 26.628906l-57.011719 76.011719v153.417969h150v-41.839844l91-150v-199.160156h-15c-24.851562 0-46 20.148438-46 45zm0 0"/><path d="m91 482h150v-153.417969l-57.011719-76.011719c-11.644531-15.554687-29.472656-25.253906-48.867187-26.628906-14.960938-1.15625-29.527344 2.90625-41.722656 11.03125l69.804687 97.734375-24.40625 17.429688-77.796875-108.910157v-107.226562c0-24.851562-20.148438-45-45-45h-16v199.160156l91 150zm0 0"/></svg>