<svg height="512pt" viewBox="-121 0 512 512" width="512pt" xmlns="http://www.w3.org/2000/svg"><path d="m30 22.5c0 12.425781 10.074219 22.5 22.5 22.5h165c12.425781 0 22.5-10.074219 22.5-22.5s-10.074219-22.5-22.5-22.5h-165c-12.425781 0-22.5 10.074219-22.5 22.5zm0 0"/><path d="m0 97.5c0 12.425781 10.074219 22.5 22.5 22.5h225c12.425781 0 22.5-10.074219 22.5-22.5s-10.074219-22.5-22.5-22.5h-225c-12.425781 0-22.5 10.074219-22.5 22.5zm0 0"/><path d="m22.5 195h225c12.425781 0 22.5-10.074219 22.5-22.5s-10.074219-22.5-22.5-22.5h-225c-12.425781 0-22.5 10.074219-22.5 22.5s10.074219 22.5 22.5 22.5zm0 0"/><path d="m22.5 270h7.5v31h60v-31h90v31h60v-31h7.5c12.425781 0 22.5-10.074219 22.5-22.5s-10.074219-22.5-22.5-22.5h-225c-12.425781 0-22.5 10.074219-22.5 22.5s10.074219 22.5 22.5 22.5zm0 0"/><path d="m234.273438 392 30-61h-258.546876l30 61h24.273438v30h-30v30h210v-30h-30v-30zm0 0"/><path d="m60 482h150v30h-150zm0 0"/></svg>