<svg height="512pt" viewBox="0 0 512 511" width="512pt" xmlns="http://www.w3.org/2000/svg"><path d="m256 94.242188c-15.027344 12.171874-45 40.324218-45 71.203124 0 22.320313 15.644531 43.121094 30 57.585938v-87.585938h30v87.585938c14.355469-14.464844 30-35.265625 30-57.585938 0-30.878906-29.972656-59.03125-45-71.203124zm0 0"/><path d="m421 165.445312c0-90.820312-73.277344-164.796874-165-164.945312-92.195312-.148438-164.070312 73.53125-164.933594 162.792969-.601562 62.410156 33.78125 120.289062 89.933594 148.976562v20.175781h150v-20.175781c54.988281-28.097656 90-84.683593 90-146.824219zm-150 97.53125v37.46875h-30v-37.46875c-16.628906-12.722656-60-50.3125-60-97.53125 0-44.597656 37.511719-82.5625 75-108.074218 37.328125 25.398437 75 63.511718 75 108.074218 0 47.21875-43.371094 84.808594-60 97.53125zm0 0"/><path d="m451 150.445312h61v30h-61zm0 0"/><path d="m0 150.445312h61v30h-61zm0 0"/><path d="m484.339844 279.953125-51.957032-30-15 25.988281 51.957032 30zm0 0"/><path d="m42.660156 24.953125-15 25.988281 51.957032 30 15-25.988281zm0 0"/><path d="m469.339844 24.953125-51.957032 30 15 25.988281 51.957032-30zm0 0"/><path d="m42.660156 305.941406 51.957032-30-15-25.988281-51.957032 30zm0 0"/><path d="m361 392.445312v-30h-210v30h30v30h-30v30h210v-30h-30v-30zm0 0"/><path d="m211 482.445312h90v30h-90zm0 0"/></svg>