<svg height="512pt" viewBox="0 0 512 512" width="512pt" xmlns="http://www.w3.org/2000/svg"><path d="m0 452h91v30h-91zm0 0"/><path d="m121 482h60v30h-60zm0 0"/><path d="m211 452h90v30h-90zm0 0"/><path d="m421 452h91v30h-91zm0 0"/><path d="m331 482h60v30h-60zm0 0"/><path d="m136 422v-76h30v76h47.296875l-29.996094-181h-64.601562l-30 181zm0-136h30v30h-30zm0 0"/><path d="m482 30h-452v-30h-30v91h512v-91h-30zm0 0"/><path d="m346 422v-76h30v76h47.296875l-29.996094-181h-64.601562l-30 181zm0-136h30v30h-30zm0 0"/><path d="m0 422h58.289062l30.011719-181h-27.300781v-90h180v90h-27.300781l30.007812 181h24.582031l30.011719-181h-27.300781v-90h180v90h-27.300781l30.007812 181h58.292969v-301h-512zm0 0"/><path d="m301 181h120v30h-120zm0 0"/><path d="m91 181h120v30h-120zm0 0"/></svg>