<svg height="512pt" viewBox="0 0 512 512" width="512pt" xmlns="http://www.w3.org/2000/svg"><path d="m71.664062 313.363281-33.925781 68.65625 76.40625 4.9375 1.933594-29.941406-31.523437-2.035156 14.003906-28.316407zm0 0"/><path d="m440.335938 198.636719 33.925781-68.65625-76.40625-4.9375-1.933594 29.941406 31.523437 2.035156-14.003906 28.316407zm0 0"/><path d="m157.019531 84.554688 28.316407 14.003906 13.300781-26.894532-68.65625-34.925781-4.9375 77.40625 29.941406 1.933594zm0 0"/><path d="m386.957031 397.855469-29.941406-1.933594-2.035156 31.523437-28.316407-14.003906-13.300781 26.894532 68.65625 33.925781zm0 0"/><path d="m114.144531 125.042969-76.40625 4.9375 33.925781 68.65625 26.894532-13.300781-14.003906-28.316407 31.523437-2.035156zm0 0"/><path d="m397.855469 386.957031 76.40625-4.9375-33.925781-68.65625-26.894532 13.300781 14.003906 28.316407-31.523437 2.035156zm0 0"/><path d="m357.015625 116.078125 29.941406-1.933594-4.9375-77.40625-68.65625 34.925781 13.300781 26.894532 28.316407-14.003906zm0 0"/><path d="m185.335938 413.441406-28.316407 14.003906-2.035156-31.523437-29.941406 1.933594 4.9375 76.40625 68.65625-33.925781zm0 0"/><path d="m81.359375 273.519531-26.277344-17.519531 26.277344-17.519531-16.636719-24.960938-64.722656 42.480469 64.722656 42.480469zm0 0"/><path d="m430.640625 238.480469 26.277344 17.519531-26.277344 17.519531 16.636719 24.960938 64.722656-42.480469-64.722656-42.480469zm0 0"/><path d="m213.519531 64.722656 24.960938 16.636719 17.519531-26.277344 17.519531 26.277344 24.960938-16.636719-42.480469-64.722656zm0 0"/><path d="m298.480469 447.277344-24.960938-16.636719-17.519531 26.277344-17.519531-26.277344-24.960938 16.636719 42.480469 64.722656zm0 0"/><path d="m91 256c0 90.980469 74.019531 165 165 165s165-74.019531 165-165-74.019531-165-165-165-165 74.019531-165 165zm206.71875-65.625-40.503906 50.625h60l-79.496094 99.375-23.4375-18.75 40.503906-50.625h-60l79.496094-99.375zm0 0"/></svg>