<svg height="512pt" viewBox="0 0 512 512" width="512pt" xmlns="http://www.w3.org/2000/svg"><path d="m256 151c-24.8125 0-45 20.1875-45 45s20.1875 45 45 45 45-20.1875 45-45-20.1875-45-45-45zm0 0"/><path d="m507.605469 447.605469-21.210938-21.210938-34.394531 34.394531v-38.789062h-30v38.789062l-34.394531-34.394531-21.210938 21.210938 34.394531 34.394531h-53.988281l-19.988281-60h-141.625l-19.988281 60h-53.988281l34.394531-34.394531-21.210938-21.210938-34.394531 34.394531v-38.789062h-30v38.789062l-34.394531-34.394531-21.210938 21.210938 34.394531 34.394531h-38.789062v30h512v-30h-38.789062zm0 0"/><path d="m417.382812 306.492188 27.128907-47.007813-46.214844-69.972656-68.367187-4.101563c.5 3.492188 1.070312 6.964844 1.070312 10.589844 0 19.074219-7.378906 36.3125-19.152344 49.5625zm0 0"/><path d="m256 121c5.136719 0 10.152344.527344 15 1.519531v-122.519531h-54.273438l-37.5 76 30.65625 61.308594c12.761719-10.054688 28.648438-16.308594 46.117188-16.308594zm0 0"/><path d="m106.761719 327.515625 83.714843-5.039063 37.617188-56.988281c-20.300781-8.183593-35.953125-25.039062-42.929688-45.917969l-105.546874 60.9375zm0 0"/><path d="m301 331h-30v-61.519531c-4.847656.992187-9.863281 1.519531-15 1.519531s-10.152344-.527344-15-1.519531v61.519531h-30v61h90zm0 0"/></svg>