<svg height="512pt" viewBox="0 0 512 512" width="512pt" xmlns="http://www.w3.org/2000/svg"><path d="m446.765625 136.921875 19.03125-31.742187-58.976563-58.976563-31.742187 19.03125c-21.109375-13.214844-44.035156-22.707031-68.378906-28.316406l-8.980469-36.917969h-83.4375l-8.980469 36.917969c-24.34375 5.609375-47.269531 15.101562-68.378906 28.316406l-31.742187-19.03125-58.976563 58.976563 19.03125 31.742187c-13.214844 21.109375-22.707031 44.035156-28.316406 68.378906l-36.917969 8.980469v83.4375l36.917969 8.980469c5.609375 24.34375 15.101562 47.269531 28.316406 68.378906l-19.03125 31.742187 58.976563 58.976563 31.742187-19.03125c21.109375 13.214844 44.035156 22.707031 68.378906 28.316406l8.980469 36.917969h83.4375l8.980469-36.917969c24.34375-5.609375 47.269531-15.101562 68.378906-28.316406l31.742187 19.03125 58.976563-58.976563-19.03125-31.742187c13.214844-21.109375 22.707031-44.035156 28.316406-68.378906l36.917969-8.980469v-83.4375l-36.917969-8.980469c-5.609375-24.34375-15.101562-47.269531-28.316406-68.378906zm-190.765625 284.078125c-90.980469 0-165-74.019531-165-165s74.019531-165 165-165 165 74.019531 165 165-74.019531 165-165 165zm0 0"/><path d="m256 148c-37.46875 25.476562-75 63.527344-75 108 0 46.800781 42.898438 84.300781 60 97.800781v-127.800781h30v127.800781c17.101562-13.5 60-51 60-97.800781 0-44.5625-37.472656-82.480469-75-108zm0 0"/><path d="m256 364c-4.585938-3.015625-7.398438-4.5-15-10.199219v35.683594c4.988281.5625 9.863281 1.515625 15 1.515625s10.011719-.953125 15-1.515625v-35.683594c-7.710938 5.777344-10.433594 7.195313-15 10.199219zm0 0"/></svg>