<svg height="512pt" viewBox="0 0 512 512" width="512pt" xmlns="http://www.w3.org/2000/svg"><path d="m200.5 251.5 21-21 19.5 19.199219v-53.699219h30v53.699219l19.503906-19.199219 20.996094 21-40.5 40.800781v92.097657c22.800781-15.300782 90-65.699219 90-128.398438 0-57.21875-55.269531-107.277344-105-137.402344-49.632812 30.066406-105 80.175782-105 137.402344 0 62.699219 67.199219 113.097656 90 128.398438v-92.097657zm0 0"/><path d="m384.386719 402.394531c-34.339844 30.15625-79.199219 49.605469-128.386719 49.605469-28.304688 0-54.929688-7.585938-79.1875-18.523438l13.78125 68.914063c20.867188 5.570313 42.769531 9.609375 65.40625 9.609375 65.828125 0 125.632812-26.160156 170.875-67.113281l20.039062 20.039062 21.105469-106.039062-105.949219 21.183593zm0 0"/><path d="m109.605469 384.386719c-30.15625-34.339844-49.605469-79.199219-49.605469-128.386719 0-28.304688 7.585938-54.929688 18.523438-79.1875l-68.914063 13.78125c-5.570313 20.867188-9.609375 42.769531-9.609375 65.40625 0 65.828125 26.160156 125.632812 67.113281 170.875l-20.011719 20.007812 106.039063 21.210938-21.210937-106.023438zm0 0"/><path d="m256 0c-65.828125 0-125.632812 26.160156-170.875 67.113281l-20.007812-20.011719-21.210938 106.039063 106.023438-21.210937-22.320313-22.324219c34.34375-30.15625 79.203125-49.605469 128.390625-49.605469 28.304688 0 54.929688 7.585938 79.1875 18.523438l-13.78125-68.914063c-20.867188-5.570313-42.769531-9.609375-65.40625-9.609375zm0 0"/><path d="m464.898438 65.117188-106.039063-21.210938 21.210937 106.023438 22.324219-22.320313c30.15625 34.34375 49.605469 79.203125 49.605469 128.390625 0 28.308594-7.585938 54.9375-18.527344 79.203125l68.910156-13.777344c5.578126-20.875 9.617188-42.78125 9.617188-65.425781 0-65.828125-26.160156-125.636719-67.113281-170.878906zm0 0"/><path d="m256 421c5.035156 0 10.015625-.535156 15-1v-35.601562c-3.898438 2.402343-6.597656 4.199218-7.199219 4.5l-7.800781 4.5-7.800781-4.5c-.601563-.296876-3.300781-2.097657-7.199219-4.5v35.765624c4.996094.496094 9.996094.835938 15 .835938zm0 0"/></svg>