<svg height="512pt" viewBox="0 0 512 512" width="512pt" xmlns="http://www.w3.org/2000/svg"><path d="m241 418.890625 115.488281-207.890625h-85.488281v-117.890625l-115.488281 207.890625h85.488281zm0 0"/><path d="m384.386719 402.394531c-34.339844 30.15625-79.199219 49.605469-128.386719 49.605469-28.304688 0-54.929688-7.585938-79.1875-18.523438l13.78125 68.914063c20.867188 5.570313 42.769531 9.609375 65.40625 9.609375 65.828125 0 125.632812-26.160156 170.875-67.113281l20.039062 20.039062 21.105469-106.039062-105.949219 21.183593zm0 0"/><path d="m109.605469 384.386719c-30.15625-34.339844-49.605469-79.199219-49.605469-128.386719 0-28.304688 7.585938-54.929688 18.523438-79.1875l-68.914063 13.78125c-5.570313 20.867188-9.609375 42.769531-9.609375 65.40625 0 65.828125 26.160156 125.632812 67.113281 170.875l-20.011719 20.007812 106.039063 21.210938-21.210937-106.023438zm0 0"/><path d="m335.1875 78.523438-13.78125-68.914063c-20.867188-5.570313-42.769531-9.609375-65.40625-9.609375-65.828125 0-125.632812 26.160156-170.875 67.113281l-20.007812-20.011719-21.210938 106.039063 106.023438-21.210937-22.320313-22.324219c34.34375-30.15625 79.203125-49.605469 128.390625-49.605469 28.304688 0 54.929688 7.585938 79.1875 18.523438zm0 0"/><path d="m464.898438 65.117188-106.039063-21.210938 21.210937 106.023438 22.324219-22.320313c30.15625 34.34375 49.605469 79.203125 49.605469 128.390625 0 28.308594-7.585938 54.9375-18.527344 79.203125l68.910156-13.777344c5.578126-20.875 9.617188-42.78125 9.617188-65.425781 0-65.828125-26.160156-125.636719-67.113281-170.878906zm0 0"/></svg>