<svg height="512pt" viewBox="0 0 512 512" width="512pt" xmlns="http://www.w3.org/2000/svg"><path d="m475.082031 205.300781c-5.609375-24.34375-15.101562-47.269531-28.316406-68.378906l19.03125-31.742187-58.976563-58.976563-31.742187 19.03125c-21.109375-13.214844-44.035156-22.707031-68.378906-28.316406l-8.980469-36.917969h-83.4375l-8.980469 36.917969c-24.34375 5.609375-47.269531 15.101562-68.378906 28.316406l-31.742187-19.03125-58.976563 58.976563 19.03125 31.742187c-13.214844 21.109375-22.707031 44.035156-28.316406 68.378906l-36.917969 8.980469v83.4375l36.917969 8.980469c5.609375 24.34375 15.101562 47.269531 28.316406 68.378906l-19.03125 31.742187 58.976563 58.976563 31.742187-19.03125c21.109375 13.214844 44.035156 22.707031 68.378906 28.316406l8.980469 36.917969h83.4375l8.980469-36.917969c24.34375-5.609375 47.269531-15.101562 68.378906-28.316406l31.742187 19.03125 58.976563-58.976563-19.03125-31.742187c13.214844-21.109375 22.707031-44.035156 28.316406-68.378906l36.917969-8.980469v-83.4375zm-219.082031 215.699219c-90.980469 0-165-74.019531-165-165s74.019531-165 165-165 165 74.019531 165 165-74.019531 165-165 165zm0 0"/><path d="m256 361c-41.351562 0-75-33.648438-75-75 0-33.105469 48.222656-99.859375 63.003906-119.53125l11.996094-15.964844 11.996094 15.964844c14.78125 19.671875 63.003906 86.425781 63.003906 119.53125 0 41.351562-33.648438 75-75 75zm0 0"/></svg>