<svg height="512pt" viewBox="0 -31 512 512" width="512pt" xmlns="http://www.w3.org/2000/svg"><path d="m346 150c74.441406 0 135-60.558594 135-135v-15h-45c-54.054688 0-100.449219 32.132812-121.992188 78.117188-18.730468-28.875-51.105468-48.117188-88.007812-48.117188h-45v15c0 57.890625 47.109375 105 105 105h15v31.382812c-26.871094 3.109376-52.125 13.902344-72.488281 31.242188 27.15625 10.140625 41.476562 25.152344 44.480469 27.375h118.007812v45c0 2.796875-.160156 5.582031-.453125 8.304688l34.6875-22.777344c4.785156-3.15625 10.074219-5.226563 15.378906-7.191406-18.6875-44.871094-60.835937-76.652344-109.613281-82.1875v-31.148438zm0 0"/><path d="m0 270h91v150h-91zm0 0"/><path d="m442.699219 295.605469-99.085938 64.394531h-132.613281v-30h105c24.851562 0 45-20.148438 45-45v-15h-93.675781c-8.195313 0-11.703125-6.015625-16.960938-9.945312-36.710937-32.285157-90.132812-34.296876-129.363281-6.824219v168.851562l214.117188 27.917969 176.882812-131.808594-7.859375-11.0625c-14.035156-19.761718-41.203125-24.855468-61.441406-11.523437zm0 0"/></svg>