<?xml version="1.0" encoding="utf-8"?>
<!-- Generator: Adobe Illustrator 22.0.1, SVG Export Plug-In . SVG Version: 6.00 Build 0)  -->
<svg version="1.1" id="Layer_1" xmlns="http://www.w3.org/2000/svg" xmlns:xlink="http://www.w3.org/1999/xlink" x="0px" y="0px"
	 viewBox="0 0 100 100" style="enable-background:new 0 0 100 100;" xml:space="preserve">
<g>
	<path d="M89.1,44.8l-10.9-9.5c-0.6-0.6-1-1.4-1-2.2C77.1,22,68,13,56.7,13H30.4C19.2,13,10,22,10,33.1v33.8C10,78,19.2,87,30.4,87
		h26.3c11.2,0,20.4-9,20.4-20.1c0-0.8,0.4-1.6,1-2.2l10.9-9.5c1.5-1.3,2.4-3.2,2.4-5.2S90.6,46.1,89.1,44.8z M86.4,52.2l-10.9,9.5
		c-1.5,1.3-2.4,3.2-2.4,5.2c0,8.9-7.4,16.1-16.4,16.1H30.4c-9,0-16.4-7.2-16.4-16.1V33.1C14,24.2,21.4,17,30.4,17h26.3
		c9,0,16.4,7.2,16.4,16.1c0,2,0.9,3.9,2.4,5.2l10.9,9.5c0.7,0.6,1,1.3,1,2.2S87.1,51.6,86.4,52.2z"/>
</g>
</svg>
