<?xml version="1.0" encoding="utf-8"?>
<!-- Generator: Adobe Illustrator 22.0.1, SVG Export Plug-In . SVG Version: 6.00 Build 0)  -->
<svg version="1.1" id="Layer_1" xmlns="http://www.w3.org/2000/svg" xmlns:xlink="http://www.w3.org/1999/xlink" x="0px" y="0px"
	 viewBox="0 0 100 100" style="enable-background:new 0 0 100 100;" xml:space="preserve">
<g>
	<path d="M67.3,33.3L40.4,60.3c-0.5,0.5-1.3,0.5-1.8,0l-7.2-7.2c-0.8-0.8-2-0.8-2.8,0s-0.8,2,0,2.8l7.2,7.2c1,1,2.4,1.5,3.7,1.5
		c1.3,0,2.7-0.5,3.7-1.5l26.9-26.9c0.8-0.8,0.8-2,0-2.8C69.4,32.6,68.1,32.6,67.3,33.3z"/>
	<path d="M49.4,6.9C25.9,6.9,6.9,25.9,6.9,49.4s19.1,42.5,42.5,42.5s42.5-19.1,42.5-42.5S72.8,6.9,49.4,6.9z M49.4,87.9
		c-21.2,0-38.5-17.3-38.5-38.5c0-21.2,17.3-38.5,38.5-38.5s38.5,17.3,38.5,38.5C87.9,70.6,70.6,87.9,49.4,87.9z"/>
</g>
</svg>
