<?xml version="1.0" encoding="utf-8"?>
<!-- Generator: Adobe Illustrator 22.0.1, SVG Export Plug-In . SVG Version: 6.00 Build 0)  -->
<svg version="1.1" id="Layer_1" xmlns="http://www.w3.org/2000/svg" xmlns:xlink="http://www.w3.org/1999/xlink" x="0px" y="0px"
	 viewBox="0 0 100 100" style="enable-background:new 0 0 100 100;" xml:space="preserve">
<g>
	<path d="M68.7,34L68.7,34c-3.2-0.2-6.4,0.3-9.4,1.5c-4.5-6.1-11.7-9.3-19.3-8.4c-8.5,1-15.7,7.2-17.9,15.5
		c-0.8,3.1-0.9,6.2-0.3,9.3c-1.6,0.1-3.2,0.5-4.6,1.2c-4.8,2.3-7.8,7-7.8,11.9c0.1,7.1,5.9,12.8,13,12.8h45c6,0,11.7-2.4,15.9-6.8
		c4.2-4.4,6.4-10.1,6.1-16.2C88.9,43.9,79.8,34.7,68.7,34z M80.4,68.5c-3.4,3.6-8,5.5-13,5.5h-45c-4.9,0-8.9-4-9-8.9
		c0-3.4,2.1-6.7,5.5-8.3c1.1-0.5,2.2-0.8,3.3-0.8c1.1,0,2.2-0.6,2.9-1.5c0.7-0.9,1-2,0.7-3.1c-0.5-2.6-0.5-5.2,0.2-7.7
		c1.8-6.7,7.6-11.8,14.4-12.6c0.7-0.1,1.3-0.1,2-0.1c5.5,0,10.5,2.6,13.7,7.1c1,1.4,2.9,1.9,4.5,1.3c2.5-1,5.1-1.5,7.8-1.3
		c9.1,0.5,16.5,8.1,16.9,17.2C85.6,60.2,83.8,64.9,80.4,68.5z"/>
</g>
</svg>
