<?xml version="1.0" encoding="utf-8"?>
<!-- Generator: Adobe Illustrator 22.0.1, SVG Export Plug-In . SVG Version: 6.00 Build 0)  -->
<svg version="1.1" id="Layer_1" xmlns="http://www.w3.org/2000/svg" xmlns:xlink="http://www.w3.org/1999/xlink" x="0px" y="0px"
	 viewBox="0 0 100 100" style="enable-background:new 0 0 100 100;" xml:space="preserve">
<g>
	<path d="M29.8,6C26,6,23,9,23,12.8V20v61v7.2c0,3.7,3,6.8,6.8,6.8h37.4c3.7,0,6.8-3,6.8-6.8V81V20v-7.2C74,9,71,6,67.2,6H29.8z
		 M70,88.2c0,1.5-1.3,2.8-2.8,2.8H29.8c-1.5,0-2.8-1.3-2.8-2.8V81h43V88.2z M70,77H27V24h43V77z M70,12.8V20H27v-7.2
		c0-1.5,1.3-2.8,2.8-2.8h37.4C68.7,10,70,11.3,70,12.8z"/>
	<path d="M53,13H43c-1.1,0-2,0.9-2,2s0.9,2,2,2h10c1.1,0,2-0.9,2-2S54.1,13,53,13z"/>
	<path d="M46,88h4c1.1,0,2-0.9,2-2s-0.9-2-2-2h-4c-1.1,0-2,0.9-2,2S44.9,88,46,88z"/>
	<path d="M32,88h4c1.1,0,2-0.9,2-2s-0.9-2-2-2h-4c-1.1,0-2,0.9-2,2S30.9,88,32,88z"/>
	<path d="M60,88h4c1.1,0,2-0.9,2-2s-0.9-2-2-2h-4c-1.1,0-2,0.9-2,2S58.9,88,60,88z"/>
</g>
</svg>
