<?xml version="1.0" encoding="utf-8"?>
<!-- Generator: Adobe Illustrator 22.0.1, SVG Export Plug-In . SVG Version: 6.00 Build 0)  -->
<svg version="1.1" id="Layer_1" xmlns="http://www.w3.org/2000/svg" xmlns:xlink="http://www.w3.org/1999/xlink" x="0px" y="0px"
	 viewBox="0 0 100 100" style="enable-background:new 0 0 100 100;" xml:space="preserve">
<g>
	<path d="M11.2,52l14.8,9.5c1,0.6,1.5,1.8,1.3,3l-2.3,13.6c-0.5,2.6,0.6,5.2,2.8,6.8c2.2,1.6,5,1.8,7.3,0.5L48,78.7
		c0.9-0.5,1.9-0.5,2.8,0l12.8,6.7c1,0.5,2.1,0.8,3.3,0.8c1.4,0,2.9-0.5,4.1-1.3c2.2-1.6,3.2-4.2,2.8-6.8l-2.3-13.6
		c-0.2-1.2,0.3-2.4,1.3-3L87.5,52c2.5-1.6,3.7-4.6,3-7.5c-0.7-2.9-3.1-5-6-5.3l-19.7-2.1c-1.1-0.1-2.1-0.9-2.5-2l-6.3-18
		c-1-2.8-3.6-4.7-6.6-4.7c-3,0-5.6,1.8-6.6,4.7l-6.3,18c-0.4,1.1-1.4,1.9-2.5,2l-19.7,2.1c-3,0.3-5.4,2.4-6,5.3
		C7.5,47.4,8.7,50.4,11.2,52z M12.1,45.4c0.2-1,1-2.1,2.6-2.3l19.7-2.1c2.7-0.3,5-2.1,5.8-4.6l6.3-18c0.5-1.5,1.8-2,2.8-2
		c1,0,2.3,0.5,2.8,2l6.3,18c0.9,2.5,3.2,4.3,5.8,4.6L84,43.2c1.5,0.2,2.3,1.3,2.6,2.3c0.2,1,0,2.3-1.3,3.2l-14.8,9.5
		c-2.4,1.5-3.6,4.3-3.1,7l2.3,13.6c0.2,1.1-0.2,2.2-1.2,2.9c-0.9,0.7-2.1,0.8-3.1,0.2l-12.8-6.7c-1-0.5-2.1-0.8-3.2-0.8
		s-2.2,0.3-3.2,0.8l-12.8,6.7c-1,0.5-2.2,0.5-3.1-0.2c-0.9-0.7-1.4-1.8-1.2-2.9l2.3-13.6c0.5-2.8-0.7-5.5-3.1-7l-14.8-9.5
		C12.1,47.8,11.9,46.4,12.1,45.4z"/>
</g>
</svg>
