<?xml version="1.0" encoding="utf-8"?>
<!-- Generator: Adobe Illustrator 22.0.1, SVG Export Plug-In . SVG Version: 6.00 Build 0)  -->
<svg version="1.1" id="Layer_1" xmlns="http://www.w3.org/2000/svg" xmlns:xlink="http://www.w3.org/1999/xlink" x="0px" y="0px"
	 viewBox="0 0 100 100" style="enable-background:new 0 0 100 100;" xml:space="preserve">
<g>
	<path d="M66.1,9H19.9c-3.2,0-5.9,2.6-5.9,5.9v57.3c0,3.2,2.6,5.9,5.9,5.9H29v5.1c0,3.2,2.6,5.9,5.9,5.9h42.2c3.2,0,5.9-2.6,5.9-5.9
		V29.9c0-3.2-2.6-5.9-5.9-5.9H72v-9.1C72,11.6,69.4,9,66.1,9z M19.9,74c-1,0-1.9-0.8-1.9-1.9V14.9c0-1,0.8-1.9,1.9-1.9h46.2
		c1,0,1.9,0.8,1.9,1.9V53H52.9c-3.2,0-5.9,2.7-5.9,5.9V74H19.9z M65.9,57L51,71.8V58.9c0-1.1,0.8-1.9,1.9-1.9H65.9z M77.1,28
		c1,0,1.9,0.8,1.9,1.9v53.3c0,1-0.8,1.9-1.9,1.9H34.9c-1,0-1.9-0.8-1.9-1.9V78h15c1.6,0,3-0.6,4.2-1.7l18.1-18
		c1.1-1.1,1.7-2.6,1.7-4.2V28H77.1z"/>
</g>
</svg>
