<?xml version="1.0" encoding="utf-8"?>
<!-- Generator: Adobe Illustrator 22.0.1, SVG Export Plug-In . SVG Version: 6.00 Build 0)  -->
<svg version="1.1" id="Layer_1" xmlns="http://www.w3.org/2000/svg" xmlns:xlink="http://www.w3.org/1999/xlink" x="0px" y="0px"
	 viewBox="0 0 100 100" style="enable-background:new 0 0 100 100;" xml:space="preserve">
<g>
	<path d="M64,83c1.1,0,2-0.9,2-2s-0.9-2-2-2H40c-12.7,0-23-10.3-23-23s10.3-23,23-23h33.2L61.6,44.6c-0.8,0.8-0.8,2,0,2.8
		C62,47.8,62.5,48,63,48s1-0.2,1.4-0.6L77.8,34c1.7-1.7,1.7-4.4,0-6.1L64.4,14.6c-0.8-0.8-2-0.8-2.8,0c-0.8,0.8-0.8,2,0,2.8L73.2,29
		H40c-14.9,0-27,12.1-27,27s12.1,27,27,27H64z"/>
</g>
</svg>
