<?xml version="1.0" encoding="utf-8"?>
<!-- Generator: Adobe Illustrator 22.0.1, SVG Export Plug-In . SVG Version: 6.00 Build 0)  -->
<svg version="1.1" id="Layer_1" xmlns="http://www.w3.org/2000/svg" xmlns:xlink="http://www.w3.org/1999/xlink" x="0px" y="0px"
	 viewBox="0 0 100 100" style="enable-background:new 0 0 100 100;" xml:space="preserve">
<g>
	<path d="M64.5,16.7c-8.8,0-16.7,5.2-20,13.2c-0.1,0.3-0.4,0.5-0.6,0.6c-0.2,0.1-0.5,0.1-0.7-0.1c-3.1-2.2-6.7-3.3-10.5-3.3
		c-10,0-18,7.6-18.2,17.4c-0.1,2.9,0.2,29,30.5,38.8c1.2,0.4,2.4,0.6,3.6,0.6c1.6,0,3.2-0.3,4.7-1c8-3.5,34.1-17,33.2-43.4
		C86,27.1,75.9,16.7,64.5,16.7z M51.5,79.2c-1.7,0.8-3.7,0.8-5.5,0.3c-27.5-8.9-27.8-32.2-27.7-34.9c0.2-7.6,6.4-13.5,14.2-13.5
		c2.9,0,5.8,0.9,8.2,2.6c1.2,0.9,2.7,1.1,4.1,0.7c1.5-0.4,2.6-1.5,3.2-2.9c2.7-6.6,9.1-10.8,16.3-10.8c9.2,0,17.6,8.8,17.9,18.9
		C83.2,63.4,59,75.9,51.5,79.2z"/>
</g>
</svg>
