<?xml version="1.0" encoding="utf-8"?>
<!-- Generator: Adobe Illustrator 22.0.1, SVG Export Plug-In . SVG Version: 6.00 Build 0)  -->
<svg version="1.1" id="Layer_1" xmlns="http://www.w3.org/2000/svg" xmlns:xlink="http://www.w3.org/1999/xlink" x="0px" y="0px"
	 viewBox="0 0 100 100" style="enable-background:new 0 0 100 100;" xml:space="preserve">
<g>
	<path d="M60.1,22.8c2.1-5.8-0.7-12.4-6.3-14.6C51.1,7,48,7.1,45.2,8.4c-2.7,1.2-4.8,3.5-5.9,6.3l-9.1,15.9C29.7,30.2,29,30,28.6,30
		H16.8c-1.6,0-2.8,1.3-2.8,2.8v53.4c0,1.6,1.3,2.8,2.8,2.8H28c0.4,0,2.9-0.4,3.7-1.9c1.7,1.2,3.7,1.9,6,1.9h29.8
		c6.7,0,12.3-5.2,12.9-11.9c0.1-1,0.3-2,0.5-3.1l6-27.6c1.2-5.5-1.1-11-5.6-13.8C79.8,31.6,76.8,30,74,30H57l3.1-7.1L60.1,22.8z
		 M28,34.5V80v5c0,0-0.1,0-0.1,0H18V34h10V34.5z M74,34c1.3,0,3.2,0.7,5.1,1.9c3.1,1.9,4.6,5.8,3.8,9.6l-6,27.6
		c-0.3,1.2-0.5,2.4-0.6,3.6C76,81.4,72.1,85,67.5,85H37.7C35,85,32,83.1,32,80V35.5l10.9-19.1l0.1-0.3c0.7-1.9,2-3.3,3.8-4.1
		c1.8-0.8,3.7-0.8,5.5-0.1c3.5,1.4,5.3,5.7,4,9.5l-3.7,8.4c-0.2,0.4-0.7,1.7,0.1,2.9c0.6,0.9,1.6,1.3,3.1,1.3H74z"/>
</g>
</svg>
