<?xml version="1.0" encoding="utf-8"?>
<!-- Generator: Adobe Illustrator 22.0.1, SVG Export Plug-In . SVG Version: 6.00 Build 0)  -->
<svg version="1.1" id="Layer_1" xmlns="http://www.w3.org/2000/svg" xmlns:xlink="http://www.w3.org/1999/xlink" x="0px" y="0px"
	 viewBox="0 0 100 100" style="enable-background:new 0 0 100 100;" xml:space="preserve">
<g>
	<path d="M83,45h-2.6v-7.6c0-16.5-13.5-30-30-30s-30,13.5-30,30V45H18c-4.4,0-8,3.6-8,8v32c0,4.4,3.6,8,8,8h65c4.4,0,8-3.6,8-8V53
		C91,48.6,87.4,45,83,45z M24.4,37.4c0-14.3,11.7-26,26-26s26,11.7,26,26V45h-52V37.4z M87,85c0,2.2-1.8,4-4,4H18c-2.2,0-4-1.8-4-4
		V53c0-2.2,1.8-4,4-4h2.4h60H83c2.2,0,4,1.8,4,4V85z"/>
	<path d="M50,68c-1.1,0-2,0.9-2,2v9c0,1.1,0.9,2,2,2s2-0.9,2-2v-9C52,68.9,51.1,68,50,68z"/>
</g>
</svg>
