<?xml version="1.0" encoding="utf-8"?>
<!-- Generator: Adobe Illustrator 22.0.1, SVG Export Plug-In . SVG Version: 6.00 Build 0)  -->
<svg version="1.1" id="Layer_1" xmlns="http://www.w3.org/2000/svg" xmlns:xlink="http://www.w3.org/1999/xlink" x="0px" y="0px"
	 viewBox="0 0 100 100" style="enable-background:new 0 0 100 100;" xml:space="preserve">
<g>
	<path d="M18.4,80h64.2c3.5,0,6.4-2.9,6.4-6.4V27.4c0-3.5-2.9-6.4-6.4-6.4H18.4c-3.5,0-6.4,2.9-6.4,6.4v46.2
		C12,77.1,14.9,80,18.4,80z M18.4,25h64.2c0.1,0,0.2,0,0.4,0L67.2,57.5c-0.4,0.9-1.4,1.5-2.4,1.5H35.9c-1,0-1.9-0.6-2.4-1.5
		L17.8,25.1C18,25,18.2,25,18.4,25z M16,30.6l14,28.7c1.1,2.3,3.4,3.7,5.9,3.7h28.9c2.5,0,4.8-1.5,5.9-3.7L85,30v43.6
		c0,1.3-1.1,2.4-2.4,2.4H18.4c-1.3,0-2.4-1.1-2.4-2.4V30.6z"/>
</g>
</svg>
