<?xml version="1.0" encoding="utf-8"?>
<!-- Generator: Adobe Illustrator 22.0.1, SVG Export Plug-In . SVG Version: 6.00 Build 0)  -->
<svg version="1.1" id="Layer_1" xmlns="http://www.w3.org/2000/svg" xmlns:xlink="http://www.w3.org/1999/xlink" x="0px" y="0px"
	 viewBox="0 0 100 100" style="enable-background:new 0 0 100 100;" xml:space="preserve">
<g>
	<path d="M44.8,90.8c1.3,1.2,2.9,1.9,4.6,1.9c1.6,0,3.3-0.6,4.6-1.9c5.7-5.5,18.8-18.9,24.2-24.5c1.9-1.9,3.4-4,4.5-6.2
		c2.7-5.4,4.1-11.4,3.9-17.5C86.1,22.2,69,5.9,48.5,6.4c-9.9,0.2-19.2,4.3-26.1,11.5C15.6,25,11.9,34.4,12.2,44.3
		c0.1,5.6,1.5,11,4,16c1.1,2.1,2.5,4.1,4.4,6C25.9,71.8,39.1,85.3,44.8,90.8z M16.2,44.2C16,35.4,19.2,27,25.4,20.6
		c6.1-6.4,14.4-10,23.3-10.2c0.3,0,0.5,0,0.8,0c18,0,32.8,14.4,33.2,32.4c0.1,5.4-1.1,10.8-3.5,15.6c-0.9,1.8-2.2,3.6-3.7,5.2
		C69.9,69,56.8,82.5,51.2,87.9c-1,1-2.6,1-3.6,0C41.9,82.4,28.8,69,23.4,63.5c-1.5-1.6-2.8-3.3-3.7-5C17.5,54,16.3,49.3,16.2,44.2z"
		/>
	<path d="M49.4,46.4c6.6,0,12-5.4,12-12s-5.4-12-12-12s-12,5.4-12,12S42.8,46.4,49.4,46.4z M49.4,26.4c4.4,0,8,3.6,8,8s-3.6,8-8,8
		s-8-3.6-8-8S45,26.4,49.4,26.4z"/>
</g>
</svg>
