<?xml version="1.0" encoding="utf-8"?>
<!-- Generator: Adobe Illustrator 22.0.1, SVG Export Plug-In . SVG Version: 6.00 Build 0)  -->
<svg version="1.1" id="Layer_1" xmlns="http://www.w3.org/2000/svg" xmlns:xlink="http://www.w3.org/1999/xlink" x="0px" y="0px"
	 viewBox="0 0 100 100" style="enable-background:new 0 0 100 100;" xml:space="preserve">
<g>
	<path d="M85.6,43.2c-1.6-3.1-4.7-5.3-8.5-6.1c-3.7-0.7-7.7-0.1-11.3,1.8c-1.9,1-3.5,2.2-4.8,3.6V18.7c0-1.4-0.7-2.7-1.9-3.4
		c-1.2-0.7-2.7-0.8-3.9-0.1L18.2,34c-1.3,0.7-2.2,2.1-2.2,3.6V70h0c-0.5,2.6-0.2,5.2,1,7.6c2.2,4.1,6.6,6.4,11.6,6.4
		c2.7,0,5.5-0.7,8.2-2.1c3.6-1.9,6.4-4.8,7.9-8.3c1.5-3.6,1.5-7.3-0.2-10.4c-1.6-3.1-4.7-5.3-8.5-6.1c-3.7-0.7-7.7-0.1-11.3,1.8
		c-1.9,1-3.5,2.2-4.8,3.6l0-12.8l37-19.4V50h0c-0.5,2.6-0.2,5.2,1,7.6c2.2,4.1,6.6,6.4,11.6,6.4c2.7,0,5.5-0.7,8.2-2.1
		c3.6-1.9,6.4-4.8,7.9-8.3C87.3,50,87.2,46.3,85.6,43.2z M26.7,62.4c2-1.1,4.2-1.6,6.4-1.6c0.8,0,1.5,0.1,2.3,0.2
		c2.6,0.5,4.7,2,5.7,4c1.1,2.1,1.1,4.5,0,7c-1.1,2.6-3.3,4.9-6.1,6.3c-5.6,3-12.1,1.8-14.4-2.6C18.3,71.4,21,65.4,26.7,62.4z
		 M57,25.8L20,45.2l0-7.6l37-18.9V25.8z M82.1,52.1c-1.1,2.6-3.3,4.9-6.1,6.3c-5.6,3-12.1,1.8-14.4-2.6c-2.3-4.4,0.4-10.4,6-13.3
		c2-1.1,4.2-1.6,6.4-1.6c0.8,0,1.5,0.1,2.3,0.2c2.6,0.5,4.7,2,5.7,4C83.1,47.1,83.1,49.6,82.1,52.1z"/>
</g>
</svg>
