<?xml version="1.0" encoding="utf-8"?>
<!-- Generator: Adobe Illustrator 22.0.1, SVG Export Plug-In . SVG Version: 6.00 Build 0)  -->
<svg version="1.1" id="Layer_1" xmlns="http://www.w3.org/2000/svg" xmlns:xlink="http://www.w3.org/1999/xlink" x="0px" y="0px"
	 viewBox="0 0 100 100" style="enable-background:new 0 0 100 100;" xml:space="preserve">
<g>
	<path d="M69.2,7H31.8C28,7,25,10,25,13.8v73.4c0,3.7,3,6.8,6.8,6.8h37.4c3.7,0,6.8-3,6.8-6.8V13.8C76,10,73,7,69.2,7z M43,11h15
		v2.8c0,0.1-0.1,0.2-0.1,0.2H43.1c0,0-0.1-0.1-0.1-0.2V11z M72,87.2c0,1.5-1.3,2.8-2.8,2.8H31.8c-1.5,0-2.8-1.3-2.8-2.8V13.8
		c0-1.5,1.3-2.8,2.8-2.8H39v2.8c0,2.3,1.8,4.2,4.1,4.2h14.8c2.3,0,4.1-1.9,4.1-4.2V11h7.2c1.5,0,2.8,1.3,2.8,2.8V87.2z"/>
</g>
</svg>
