<?xml version="1.0" encoding="utf-8"?>
<!-- Generator: Adobe Illustrator 22.0.1, SVG Export Plug-In . SVG Version: 6.00 Build 0)  -->
<svg version="1.1" id="Layer_1" xmlns="http://www.w3.org/2000/svg" xmlns:xlink="http://www.w3.org/1999/xlink" x="0px" y="0px"
	 viewBox="0 0 100 100" style="enable-background:new 0 0 100 100;" xml:space="preserve">
<g>
	<path d="M26.5,63.5c3.4,0,6.6-1.3,9.1-3.5l13.1,7.6c-0.4,1.6-0.7,3.3-0.7,5C48,83.3,56.7,92,67.5,92S87,83.3,87,72.5
		S78.3,53,67.5,53c-1.4,0-2.7,0.1-4.1,0.4v0c-5.8,1.2-10.7,5.1-13.3,10.3l-12-6.9c1.2-2.1,1.9-4.4,1.9-6.8s-0.7-4.8-1.9-6.8l12-6.9
		c2.6,5.2,7.6,9.1,13.3,10.3v0c1.3,0.3,2.7,0.4,4.1,0.4C78.3,47,87,38.3,87,27.5S78.3,8,67.5,8S48,16.7,48,27.5c0,1.7,0.2,3.3,0.7,5
		L35.6,40c-2.5-2.3-5.7-3.5-9.1-3.5C19.1,36.5,13,42.6,13,50S19.1,63.5,26.5,63.5z M52.9,67.3L52.9,67.3c1.8-5,6.2-8.8,11.3-9.9
		l-0.4-2l0.4,2c1.1-0.2,2.2-0.3,3.2-0.3C76,57,83,64,83,72.5S76,88,67.5,88S52,81,52,72.5C52,70.7,52.3,69,52.9,67.3z M67.5,12
		C76,12,83,19,83,27.5S76,43,67.5,43c-1.1,0-2.2-0.1-3.2-0.3l-0.4,2l0.4-2c-5.2-1.1-9.5-4.9-11.3-9.9l0,0C52.3,31,52,29.3,52,27.5
		C52,19,59,12,67.5,12z M26.5,40.5c2.8,0,5.4,1.2,7.2,3.3l0,0c1.5,1.7,2.3,3.9,2.3,6.2s-0.8,4.4-2.3,6.2l0,0
		c-1.8,2.1-4.4,3.3-7.2,3.3c-5.2,0-9.5-4.3-9.5-9.5S21.3,40.5,26.5,40.5z"/>
</g>
</svg>
