<?xml version="1.0" encoding="utf-8"?>
<!-- Generator: Adobe Illustrator 22.0.1, SVG Export Plug-In . SVG Version: 6.00 Build 0)  -->
<svg version="1.1" id="Layer_1" xmlns="http://www.w3.org/2000/svg" xmlns:xlink="http://www.w3.org/1999/xlink" x="0px" y="0px"
	 viewBox="0 0 100 100" style="enable-background:new 0 0 100 100;" xml:space="preserve">
<g>
	<path d="M67.4,14.8L41.6,28.9c-0.2,0.1-0.4,0.1-1,0.1c-0.2,0-0.4,0-0.6,0H24c-4.3,0-8,3.8-8,8.1v26.6c0,4.1,3.5,7.3,8,7.3h16
		c0.2,0,0.5,0.2,0.9,0.4c0.2,0.1,0.5,0.3,0.7,0.4l25.8,14.1c1.2,0.6,2.5,1,3.8,1c1.4,0,2.8-0.4,4-1.1c2.4-1.4,3.8-3.9,3.8-6.6V21.6
		c0-2.7-1.4-5.2-3.8-6.6C72.8,13.5,69.9,13.5,67.4,14.8z M75,79.2c0,1.3-0.7,2.5-1.8,3.2c-1.2,0.7-2.6,0.7-3.8,0.1L43.5,68.3
		c-0.2-0.1-0.3-0.2-0.5-0.3c-0.7-0.4-1.7-1-3-1H24c-1.9,0-4-1.2-4-3.3V37.1c0-2.1,1.9-4.1,4-4.1h16c0.2,0,0.3,0,0.5,0
		c0.8,0,1.9,0.1,3-0.6l25.8-14.1c1.2-0.7,2.7-0.6,3.8,0.1c1.2,0.7,1.8,1.8,1.8,3.2V79.2z"/>
</g>
</svg>
