<?xml version="1.0" encoding="utf-8"?>
<!-- Generator: Adobe Illustrator 22.0.1, SVG Export Plug-In . SVG Version: 6.00 Build 0)  -->
<svg version="1.1" id="Layer_1" xmlns="http://www.w3.org/2000/svg" xmlns:xlink="http://www.w3.org/1999/xlink" x="0px" y="0px"
	 viewBox="0 0 100 100" style="enable-background:new 0 0 100 100;" xml:space="preserve">
<g>
	<path d="M9,51v34c0,4.4,3.6,8,8,8h66c4.4,0,8-3.6,8-8V51c0-4.4-3.6-8-8-8h-3v-8c0-1.1-0.9-2-2-2s-2,0.9-2,2v8H25v-8
		C25,20.6,36.1,9.4,50.4,9.4c1.1,0,2-0.9,2-2s-0.9-2-2-2C33.9,5.4,21,18.4,21,35v8h-4C12.6,43,9,46.6,9,51z M13,51c0-2.2,1.8-4,4-4
		h4h59h3c2.2,0,4,1.8,4,4v34c0,2.2-1.8,4-4,4H17c-2.2,0-4-1.8-4-4V51z"/>
	<path d="M50,80c1.1,0,2-0.9,2-2V68c0-1.1-0.9-2-2-2s-2,0.9-2,2v10C48,79.1,48.9,80,50,80z"/>
</g>
</svg>
